<svg xmlns="http://www.w3.org/2000/svg" xmlns:xlink="http://www.w3.org/1999/xlink" viewBox="0 0 138.74794 74.98636"><defs><style>.cls-1{fill:none;}.cls-2{fill:#ededed;}.cls-3{clip-path:url(#clip-path);}</style><clipPath id="clip-path" transform="translate(-1.05205 -4.1847)"><path class="cls-1" d="M54.7066,38.71741H49.47314a11.51718,11.51718,0,0,1-7.73553-3.09705A17.69312,17.69312,0,0,0,29.5788,31.08948c-10.69635,0-18.45337,8.08679-18.45337,19.2276,0,11.19818,7.757,19.328,18.45337,19.328a17.49081,17.49081,0,0,0,13.33459-5.63495,6.39283,6.39283,0,0,1,4.72449-2.09338h7.04718a1.4759,1.4759,0,0,1,1.25464.681c.008.01263.01117.02691.01874.03973a29.009,29.009,0,0,0-.0398-24.56311A1.459,1.459,0,0,1,54.7066,38.71741Z"/></clipPath></defs><g id="Ebene_1" data-name="Ebene 1"><path class="cls-2" d="M139.8,49.66V76.07a3.10268,3.10268,0,0,1-3.1,3.1h-5.27a.4055.4055,0,0,1-.41-.41V49.77c0-12.18-7.35-18.66-17.33-18.66-9.99,0-17.34,6.48-17.34,18.66V70.39a8.76291,8.76291,0,0,1-8.78,8.78H84.26a10.1567,10.1567,0,0,1-7.19-2.98L58.76,57.88c-3.4-3.51-4.28-5.26-4.28-7.35,0-2.3.77-3.84,4.39-7.24L76.79,26.42a10.12,10.12,0,0,1,6.96-2.77h6.03a.40663.40663,0,0,1,.28.7L65.57,47.46a3.75843,3.75843,0,0,0-1.43,2.63,3.75838,3.75838,0,0,0,1.43,2.64l22,22.09V49.66c0-17.23,11.09-27.11,26.12-27.11C128.72,22.55,139.8,32.43,139.8,49.66Z" transform="translate(-1.05205 -4.1847)"/><path class="cls-2" d="M44.99271,0h8.10011a.33894.33894,0,0,1,.33894.33894v15.5234a.33894.33894,0,0,1-.33894.33894H51.635A6.98127,6.98127,0,0,1,44.65376,9.22V.33894A.33894.33894,0,0,1,44.99271,0Z"/><path class="cls-2" d="M47.63524,62.98948a5.31643,5.31643,0,0,0-3.928,1.74785,18.66881,18.66881,0,0,1-14.12776,5.98549c-11.41111,0-19.53029-8.66807-19.53029-20.40823,0-11.63024,8.11918-20.29831,19.53029-20.29831a18.76446,18.76446,0,0,1,12.88209,4.80979,10.43365,10.43365,0,0,0,7.01458,2.8136l5.23264,0a.41114.41114,0,0,0,.37321-.58127c-4.43509-9.467-13.70921-15.60029-25.50252-15.60029-16.45821,0-28.52742,12.28869-28.52742,28.85646,0,16.67734,12.06921,28.85647,28.52742,28.85647,11.86535,0,21.10237-6.12774,25.48159-15.60216a.41118.41118,0,0,0-.3741-.57941Z" transform="translate(-1.05205 -4.1847)"/></g><g id="Ebene_5" data-name="Ebene 5"><g id="Ebene_3" data-name="Ebene 3"><g class="cls-3"><path class="cls-2" d="M21.10315,53.31482l.21258-.04321.31745-.06476c-.09149-.08393-.169-.20514-.2768-.24561-.538-.20172-1.0816-.38922-1.62744-.569q-3.66779-1.20813-7.33789-2.4093.19519.41.39032.82c-.09967.039-.21374.13055-.29645.10779-.335-.09205-.65741-.22828-.99005-.3299a5.67367,5.67367,0,0,0-.588-.1142l.07581-.31274c-.05829.025-.12055.07873-.17444.07135a6.23222,6.23222,0,0,1-1.50257-.55811A7.10785,7.10785,0,0,1,7.804,49.15759l.5448.0412a8.51813,8.51813,0,0,0-1.15924-.60565.21537.21537,0,0,1-.11286-.12653c-.03033-.15661-.04077-.317-.0589-.476.3808.11566.3808.11566.47943-.24335.29126-1.05981.29126-1.05981-.85168-1.36529-.05261-.014-.09119-.02362-.1391-.03632-.04578.50452-.084,1.0105-.11755,1.51728.06933.04864.09643.12982.03436.30291-.02393.06665-.0434.13483-.06641.20179-.00879.15179-.01257.304-.02014.45593q.13705-.32667.274-.65338l.10107.03973c-.13525.45526-.26458.9126-.40826,1.36511a44.65893,44.65893,0,0,0,.75024,10.43421c.96686,4.8023,2.8974,9.68353,6.746,12.88989.17419.14514.35235.29413.53125.44513h.18853q.23795-1.02906.478-2.05762c.00629-.02691.04974-.04333.06207-.07086.14038-.31274.2959-.62024.41242-.94177.18829-.51917.33972-1.0517.53015-1.57007a1.475,1.475,0,0,1,.251-.35809c.13092.127.27545.33429.33343.31244.33386-.126.54315.05542.78894.21386a.36339.36339,0,0,0,.34955-.06238c.23621-.43261.43567-.88519.65021-1.32977.1275-.26428.01831-.42145-.22132-.53619-.26214-.12549-.35131.03186-.40173.24-.1206.49805-.23358.9978-.34967,1.49689l-.11615.00653a3.19315,3.19315,0,0,1,.00482-.53681c.0838-.48388-.09192-.66131-.57123-.54632-.14184.034-.28167.07654-.553.151.28521-.58509.51544-1.04492.7312-1.51135.041-.08863.00219-.2129.0393-.30488a7.20563,7.20563,0,0,1,.42249-.93939,2.88217,2.88217,0,0,1,.48077-.4909h-.47082a5.10919,5.10919,0,0,1,.1748-.579,2.83107,2.83107,0,0,1,.36872.097c.17382-.49743.3515-1.02728.544-1.55163.27509-.74921.561-1.49439.84235-2.24134a10.95541,10.95541,0,0,0,.29211,1.16816c.08374.23236.29492.27575.39942-.009.26434-.72058.51782-1.44568.748-2.17755a.48121.48121,0,0,0-.10034-.42987.7119.7119,0,0,0-.53125-.12c-.16791.04394-.34589.217-.10449.43451a.40456.40456,0,0,1-.12293.20373,3.68059,3.68059,0,0,1-.397.23077c.18048-.54608.34943-1.09643.54614-1.63671.119-.32666.18805-.56849-.31469-.48987-.07215.01129-.16407-.1037-.24689-.16022.077-.01929.17511-.01556.22656-.06268a2.22105,2.22105,0,0,0,.298-.3526,2.56908,2.56908,0,0,0,.15985-.29627l.25732.26557c.043-.11927.11554-.294.16852-.47437.05389-.18353.0683-.38031.135-.5581.32141-.856.32562-.85444-.57147-.964a.14422.14422,0,0,1-.04737-.00574c-.18005-.09485-.35943-.19116-.539-.28717.19568-.02655.39075-.06152.58728-.07514.07087-.00494.191.022.21064.06781.11877.27784.24957.07844.304-.01165.0354-.0586-.046-.19385-.086-.29016a2.352,2.352,0,0,0-.12487-.22956.528.528,0,0,1,.12255-.0498.41659.41659,0,0,1,.45093.4895.64343.64343,0,0,0,.03278.20709c.05523-.03558.14648-.06091.15985-.10834.08765-.31024.28644-.62561-.03-.9317C21.12482,53.52429,21.12811,53.405,21.10315,53.31482Z" transform="translate(-1.05205 -4.1847)"/><path class="cls-2" d="M26.29736,69.55005c.59082-1.82349,1.19568-3.6424,1.79212-5.464.18634-.569.19885-.55609.77209-.35681q4.33064,1.50531,8.67322,2.97552c.371.12476.44055.25641.31183.60468a7.22242,7.22242,0,0,0-.29,1.09167c-.06476.32483-.21423.42285-.53033.31464-.93848-.32141-1.88245-.62683-2.82117-.94769q-1.6778-.57341-3.35-1.16315c-.37579-.13214-.74591-.28076-1.11706-.4256-.30945-.12067-.48847-.064-.59082.29614-.33124,1.166-.67743,2.32837-1.05139,3.4812-.3686,1.13617-.7782,2.259-1.1698,3.3877h3.75079c.43695-1.12885.13641-1.07166,1.44287-.647.58521.19024,1.15442.42981,1.7309.647h3.6546l.17749-2.07349a1.76121,1.76121,0,0,0,.3761.08106,1.02454,1.02454,0,0,0,.29724-.10071.27808.27808,0,0,1,.158-.02264c.36377.133.71649.30468,1.08887.403.25586.06757.63684-.14191.626.37622-.00109.04852.14423.11218.23011.14868q1.40679.59748,2.81659,1.18787h.22589c.36767-.181.71716-.38147,1.05987-.58679-.43548-.27332-.87274-.54389-1.30279-.82538-.13239-.08667-.18787-.296-.32227-.37311-.123-.07056-.22516-.3999-.45715-.10773-.0412.05188-.17249.0564-.25733.04541-.69744-.09008-1.399-.16131-2.08892-.29321a16.68618,16.68618,0,0,1-1.99073-.49536c-.78936-.25482-.7799-.2843-1.15643.38239.236-.29981-.0722-.8454.50488-1.0066.07007-.01959.09095-.22644.12885-.34826.20465-.65668.41314-1.31226.608-1.97181.073-.24682.17438-.336.44733-.24066.72448.25293,1.45861.47864,2.19067.70948.16608.05243.33948.08191.50952.12194q-.615-.28335-1.23016-.56659l.02606-.08319c.09631.01618.193.03022.28876.04908.19446.03827.28094.01556.26233-.23584-.01349-.18256.11645-.53821.17-.53583a1.895,1.895,0,0,1,.80475.20837c.07593.0412.01263.33893.01276.51929.00018.20563.00006.41125.00006.63641-.043,0-.19513,0-.3468.00019.86639.3233,1.72808.65844,2.59942.96661,1.17407.41516,2.35394.81421,3.53345,1.21381.19086-.1781.38244-.34626.57312-.52021-.06244-.02368-.12427-.04876-.18677-.07226-.63165-.23731-.6369-.2237-.49206-.86383.01763-.07807.03436-.15662.05609-.23358.14111-.49939-.329-1.11536-.77906-.91779-.36828.16162-.51043-.03851-.73956-.14117-.3819-.171-.79449-.54859-1.13019-.48755a2.91027,2.91027,0,0,1-1.53766-.36231c-1.03643-.34118-2.02423-.8305-3.03192-1.25909-.28112-.11963-.48211-.12006-.539.26452a3.54527,3.54527,0,0,1-.24255.82764c-.03955.09552-.21765.21936-.2984.19843-.5835-.15137-1.16516-.31665-1.73432-.51508-1.19641-.41711-2.38543-.85565-3.57641-1.28839q-1.72047-.62512-3.43836-1.25763c-.00812-.00293-.00805-.02826-.02209-.08331h.80615l.01788-.12555a4.70477,4.70477,0,0,0-1.339-.18921,1.63749,1.63749,0,0,1-.93878-.12744c-.26617-.11017-.65381-.31433-.8186.19464-.25623.79138-.51111,1.58331-.77429,2.37237q-.69837,2.09391-1.407,4.18439c-.36548,1.07507-.74139,2.14661-1.11267,3.21979h.28858C25.49768,72.07928,25.88861,70.81177,26.29736,69.55005Z" transform="translate(-1.05205 -4.1847)"/><path class="cls-2" d="M20.00153,27.18073H15.37634a1.87852,1.87852,0,0,1-.40857.45367,20.31109,20.31109,0,0,0-4.098,4.34613c.30914.10248.61774.20666.92664.30994.24646.08239.4624.17828.66876-.123.07086-.10358.34375-.06891.52435-.09735a1.77358,1.77358,0,0,1,.05213.37231c-.02094.30835.06744.38709.35852.237.09381-.0484.23858.002.36.00708a1.62824,1.62824,0,0,0-.11316.27515,1.09657,1.09657,0,0,0,.00263.25781c.07782-.03784.19665-.05548.22693-.11682a8.62976,8.62976,0,0,0,.642-1.42609c.08387-.29773.17908-.3349.40961-.252.60077.21613,1.19788.44208,1.79657.66419-.11627.16973-.6106-.25934-.4801.301-.08692.01044-.18732.05371-.25812.02472a3.66711,3.66711,0,0,0-.45691-.242c-.14917-.03608-.4342-.02655-.46033.04046a1.40131,1.40131,0,0,0-.07672.69116c.01239.08289.25531.13141.39307.19562l.41937-.579c-.01556.20923-.03821.41944-.03027.4206.41693.061.83649.10424,1.23181.14685-.08453-.313-.177-.65528-.26959-.99787a1.76875,1.76875,0,0,1,1.61621,1.36292q.793-2.20413,1.58417-4.4093c.0205-.05726.04449-.1532.01654-.18189-.44135-.45221-.02954-.85693.05627-1.28119A1.77728,1.77728,0,0,0,20.00153,27.18073Z" transform="translate(-1.05205 -4.1847)"/><path class="cls-2" d="M24.1698,30.27073c-.28215-.34726-.10134-.66261.0837-.97766a1.14056,1.14056,0,0,0,.1991-.35387c.131-.93657.1237-.93285,1.0583-.64817.39.1188.78723.21371,1.18122.31947l.034-.13595c-.43451-.1486-.87742-.277-1.30116-.4517-.39749-.16392-.87571-.26968-.90319-.84211H24.2332c.0522.2422.2152.53135.13608.71788-.25309.59706-.59684,1.15558-.90183,1.73094a.24792.24792,0,0,0-.00857.13783c.03317.25283.07014.50513.109.78Z" transform="translate(-1.05205 -4.1847)"/><path class="cls-2" d="M51.593,36.9353c-.42243-.07214-.41712-.3211-.30848-.66064.17414-.54419.33893-1.09131.50965-1.63666a16.1213,16.1213,0,0,1-2.55554-1.83832c-1.07215-.32873-2.14362-.6604-3.204-1.02423-.379-.13-.98957.02258-1.00666-.675-.00061-.025-.07318-.059-.11694-.07043-.249-.06531-.49939-.125-.80164-.19953.1424.19965.51386.34467.05274.50831-.01367.00482.004.10833.013.16485.04651.29053-.17639.66211.25024.84485a.69608.69608,0,0,1-.044.1778c-.52967,1.57849-1.044,3.16235-1.59693,4.73272-.32257.91632-.69922,1.81415-1.06707,2.714a5.30859,5.30859,0,0,0-.60865,1.4317c-.04809.69135-.55926,1.28827-.35467,2.00867.00482.01691-.02814.06067-.0503.06671-.2752.07489-.399.16217-.46228.53009-.08642.50165-.17053.57239.33948.72138l.00043.00061q.12387.07378.24829.14685l-.2536-.15467.10968-.15478.80481.01556q.309.097.618.19385l-.37415.09314q-.12185-.14355-.24383-.287-.40237-.00777-.80542-.01458.28344.15665.56824.3114l.48089-.00013.09509.19324.58692-.00329-.28284-.28772c.40753.02368.45087.05371.42645.29425.289.12494.59534.38336.86408.34887a4.13648,4.13648,0,0,1,1.98193.356,1.5415,1.5415,0,0,0,.24616.04413l-.20648-.35706a1.80759,1.80759,0,0,1,.44079-.00268c.31091.07428.61395.18133.93512.2796-.05377.27026-.124.62256-.19421.97553a1.08983,1.08983,0,0,1-.41107-.05353,1.27953,1.27953,0,0,0-1.51368.1867c-.06927.05042-.18768.04486-.23974.10376-.04407.04981-.03083.15027-.0401.231a3.37838,3.37838,0,0,0-1.58966,1.00287c-.31134.25732-.53131.62347-.83667.89-.38648.33747-.82288.61719-1.22583.93695-.075.05951-.15558.21613-.12744.28388.12915.3111-.12128.39026-.28846.49921-.20831.13574-.44091.23425-.71051.37335.41309.13019.76239.24023,1.15424.36371l-.31995.27575a7.95914,7.95914,0,0,1,3.57636.74311,1.35532,1.35532,0,0,0,.57916.09527,15.08014,15.08014,0,0,0,2.07446-.41241c.55518-.17145,1.11322-.36127,1.29248-1.1023.62372-2.57806,1.63672-5.0401,2.15534-7.66229a53.259,53.259,0,0,1,1.77649-5.82526C52.05768,37.26257,52.048,37.01306,51.593,36.9353ZM44.77911,48.07935a2.26546,2.26546,0,0,1-.165-.30323c-.07019-.19055-.12262-.38781-.18226-.582.31836-.14337.63764-.28723,1.07044-.48218-.16431.44934-.2785.806-.42938,1.14637C45.02948,47.95618,44.87994,48.007,44.77911,48.07935Zm5.63672-7.26813c-.57409,1.82275-1.13794,3.64874-1.70825,5.47265-.21832.69806-.45251,1.39124-.66363,2.09144-.06647.22039-.1377.328-.39557.24163-.66712-.22345-1.34125-.42645-2.01386-.63336-.56207-.17291-.19183-.53046-.15661-.812.03973-.318.21582-.366.51269-.25873.22858.08258.56268.31378.64166-.19012h-.0014c.16205-.36823.41968-.51209.9-.20172-.1936-.358-.73608-.25141-.53552-.69233.10541-.23187.31476-.41552.42767-.64526.25867-.52631.75226-.433,1.19385-.52112.16876-.03369.43689-.2312.433-.34637-.01258-.37122.44073-.71088.0852-1.10254a1.81848,1.81848,0,0,1,.19428-.20459c.24475-.2262.374-.442-.07386-.56763-.28863-.08093-.26635-.25122-.19006-.47583.12329-.3631.22082-.735.34241-1.09881.05383-.161.04565-.43824.35986-.26886.01471.00793.075-.03254.07373-.03626-.18671-.52984.23908-.277.37775-.25921C50.53906,40.34332,50.49188,40.56982,50.41583,40.81122Z" transform="translate(-1.05205 -4.1847)"/><path class="cls-2" d="M38.402,72.136c-.041-.01646-.21891.20049-.26805.33391-.10423.283-.16527.58192-.244.87435h.76938c.05461-.22806.11259-.45538.163-.68436C38.89715,72.32008,38.624,72.22521,38.402,72.136Z" transform="translate(-1.05205 -4.1847)"/><path class="cls-2" d="M40.27418,27.499c.47743.16912.96611.30739,1.45383.4461.237.06743.48023.11289.72067.16829l.0421-.14663q-1.09829-.393-2.19647-.786H40.102C40.158,27.29057,40.18982,27.46906,40.27418,27.499Z" transform="translate(-1.05205 -4.1847)"/><path class="cls-2" d="M14.95109,72.73485l-.01252-.07395q-.06805.24357-.13647.48732l-.00595-.00157.012.19765h.38472q-.12037-.34216-.24084-.68427Z" transform="translate(-1.05205 -4.1847)"/><path class="cls-2" d="M31.66015,42.12246c.29693-.01356.22115.1465.15879.30867-.3644.94825-.73192,1.89541-1.08845,2.84665a1.149,1.149,0,0,0-.0792.467c.05964.85589.13276,1.71086.21113,2.56525.0105.11447.04616.28714.12278.32424a8.086,8.086,0,0,0,.88354.3354,7.07058,7.07058,0,0,1,2.21117.78749c.04327.03335.122.02437.18461.02809.14536.00862.291.01291.43652.019l-.30249.446c.31583-.0915.54359-.1602.773-.22282.12322-.0336.24924-.0567.374-.08458.00866.13613.02253.27221.024.40843a2.10335,2.10335,0,0,1-.02656.25331c.08-.03558.204-.0505.23213-.11044.10484-.22356.12239-.51025.27414-.68537.42168-.48684.90861-.91653,1.34346-1.39282a4.7069,4.7069,0,0,0,1.04973-2.60674l-.46334.07457a4.78415,4.78415,0,0,1,.003-.83327c.0161-.0995.2159-.22823.34227-.241.64852-.06546.656-.06331.43188-.685-.02175-.06025-.05286-.11749-.07058-.17875-.11871-.41044-.01532-.54818.46995-.55593-.13639-.37325-.2474-.73945-.40773-1.08263a.558.558,0,0,0-.35959-.263c-.07649-.01475-.232.13928-.27712.24823-.12764.30805-.21239.6336-.32218.94944-.11075.31868-.23125.63395-.335.91671a3.325,3.325,0,0,0-.444-.4342c-.19393-.1262-.42151-.19949-.62717-.30937-.06773-.03614-.11245-.11525-.16772-.17472.27738-.144.15932-.604.6007-.67661.1794-.02949.38427-.40348.41814-.64327.02271-.16076-.03374-.54434-.47205-.4454-.19061.04305-.422-.14169-.64091-.16383a3.43215,3.43215,0,0,0-.65342.05268l.00932.10642.61023.16457-.33439.08305.00412.10918h.7475l-.33006.574c-.11263-.10746-.21839-.22342-.33938-.32039-.18527-.14846-.375-.29295-.57383-.42234-.231-.15035-.3571-.05959-.47748.18129-.2169.434.28307.50119.284.87413-.16151-.13267-.4521-.25891-.4591-.39928a4.35644,4.35644,0,0,1,.16243-1.06544.36019.36019,0,0,1,.23195-.006c.2709.11389.382-.00919.44129-.25581.041-.17074.1055-.3357.15376-.50491.05986-.20973.13793-.343.40791-.25112.08664.02949.22815-.10213.34454-.16-.06656-.12029-.10572-.31006-.2043-.34887-.4311-.16974-.8779-.30066-1.32194-.43613-.423-.129-.8674-.22049-1.03905-.753-.38778,1.01516-.72676,2.01142-1.06242,3.00877q-.58167,1.728-1.15794,3.45785c-.061.18282-.11635.30429.153.44545.89943.47148,1.99064.31837,2.84328.91167a.28838.28838,0,0,0,.14007.028c.24915.0154.501.01128.74667.04852a.67259.67259,0,0,1,.34738.178c.04569.04472.00407.17862.00193.27222a1.44007,1.44007,0,0,1-.362-.02175c-1.35568-.438-2.70728-.88862-4.06357-1.32465-.27712-.08909-.33312-.21389-.2397-.4952q1.18091-3.55541,2.3301-7.12127c.12068-.37521.36055-.43756.68987-.40855.09193.00809.25191.02695.26587-.0067a.57238.57238,0,0,0,.04261-.3641,1.723,1.723,0,0,0-.24731-.38419c.14676.05991.29339.12007.44046.17923a.36486.36486,0,0,0,.0473.00775q1.11127.2781,2.22246.55663c.38313.09587.72956.2099.45336.725-.02691.05019.01821.14549.046.21327a.16652.16652,0,0,0,.12059-.00232c.12191-.31185.15862-.19953.18479.032.0007.00617.1391.018.14742-.00123a2.20748,2.20748,0,0,0,.21861-.61964c.00709-.07071-.21152-.19835-.3459-.2432-.71355-.23808-1.43737-.446-2.14728-.694-.15381-.05373-.3799-.23484-.374-.34664a2.61327,2.61327,0,0,1,.23187-.86267c.0862-.20185.27816-.35692.37574-.556a3.30112,3.30112,0,0,0,.208-.65889c.03163-.127.08506-.33636.029-.37968a.73026.73026,0,0,0-.47463-.14238c-.06227.00556-.12121.24241-.15092.3806a6.91941,6.91941,0,0,1-.17787.92537,9.06948,9.06948,0,0,1-.5187,1.03747c-.04432.0852-.10239.16326-.15411.24465l-.1388-.06152c.34984-1.03078.69968-2.06152,1.05227-3.10031-.45463-.1931-.45253-.19244-.63356.363q-.3648,1.11935-.73778,2.23594c-.045.13363-.08677.31142-.18872.37565-.55891.3522-.48877,1.00164-.70445,1.50274a18.55963,18.55963,0,0,0-.662,2.23261,2.50961,2.50961,0,0,1-.15157.44724c-.22706.44685-.09951,1.1253-.81629,1.26173-.048.00915-.10663.12366-.10362.18641A.19789.19789,0,0,0,31.66015,42.12246Z" transform="translate(-1.05205 -4.1847)"/><path class="cls-2" d="M21.82269,29.68616a7.52123,7.52123,0,0,0-.71368-.324c-.04108.19171-.02173.40418-.11768.49561-.38348.36535-.82623.67846-.77612,1.29931a.11962.11962,0,0,1-.04785.08051c-.43585.352-.3794.91724-.56824,1.37311-.27875.67279-.39648,1.41052-.62915,2.1051-.09045.27008-.33258.722-.46155.70721-.65478-.07519-1.35.16645-1.97345-.25262a.7696.7696,0,0,0-1.0733.03436c-.37872.51087-.7381.44666-1.18048.173a.52354.52354,0,0,0-.13818-.03907,1.6937,1.6937,0,0,1-.5702-.07617,3.94221,3.94221,0,0,1-.62164-.48749c-.055.078-.12079.22913-.16626.22321a6.90854,6.90854,0,0,1-.97619-.18909c-.121-.03381-.21552-.16308-.322-.24884l.30542-.2077c-.65875-.25952-.65838-.25952-.62939.45215a.22441.22441,0,0,1-.02222.079c-.387-.3642-.76611-.78125-1.22052-.06629a7.94291,7.94291,0,0,0-.80652,1.251c-.17578.44928-.37689.99176.16712,1.4068.0534.04077.03467.20862.01178.3089-.03168.13892-.14026.26868-.14368.40411-.0116.46338-.233.39728-.55951.29175-.236-.07629-.47363-.14752-.7099-.223-.04327.15063-.078.30389-.11859.45557.30261.09466.60571.18866.8988.29724l.03162-.07746-.42548-.29992.0749-.15027a10.07836,10.07836,0,0,1,1.30755.58716c.50018.311.94348.71264,1.417,1.06762.48212.36139.64057.29669.77161-.29815a.92536.92536,0,0,1,.06122-.17981c.27978-.62128.55487-1.24488.84912-1.85932.04492-.09375.19018-.21393.27277-.20263.40545.05548.80273.17022,1.208.22827.53272.07623,1.07032.11908,1.60578.17627-.46344-.31946-.93146-.63257-1.38886-.96039-.37488-.2688-.5849-.17987-.70184.25189a.47513.47513,0,0,1-.42371.20191c-.19415-.06763-.63946.0534-.51886-.36756a4.15317,4.15317,0,0,1,.53772-1.0517.42545.42545,0,0,1,.4079-.03607c.38318.25281.73847.54785,1.10657.8288-.09937-.19464-.10578-.33936.16949-.2085.41822.19873.81409.44623,1.2378.631.27825.12134.3374.35029.2138.52668-.24139.34436-.02576.52191.16522.7337a5.56813,5.56813,0,0,1,.50861.57214c.23456.347.48676.35633.82678.07972-.27057-.45813-.54486-.92267-.83526-1.41431.43414.21539.8598.42163,1.28057.63745.23884.12244.41663.1311.5163-.17328.4375-1.33551.88184-2.6687,1.32373-4.00274q-.179.13512-.358.27014a1.38035,1.38035,0,0,1,.02362-.47852c.13043-.30078.3584-.564.46008-.87115.12561-.3794.15161-.79065.2425-1.18311.0946-.40869.26452-.31073.43951-.04217a7.57254,7.57254,0,0,1,.21851-.77826c.157-.39936.353-.78327.51806-1.17975C21.842,29.89557,21.8623,29.7085,21.82269,29.68616Zm-9.40112,7.63678a4.14094,4.14094,0,0,0-1.26965-2.42719c.4732-.08258.57238.41382.88208.58753.118.0661.1864.21472.295.30444C12.96381,36.31256,12.988,36.49127,12.42157,37.32294Z" transform="translate(-1.05205 -4.1847)"/><path class="cls-2" d="M26.09834,31.29241c-.08559.38156-.23957.55435-.66493.36952a8.06037,8.06037,0,0,0-1.19023-.3704c-.3578-.09289-.53493.06214-.44287.36887.28906.96309.574,1.92776.88963,2.88218a.89559.89559,0,0,0,.39451.50076,12.9378,12.9378,0,0,0,1.35585.48146c.27969.09346.41175-.00534.44107-.30853a2.52823,2.52823,0,0,1,.18557-.96038c.29374-.52977.0512-1.2357.58442-1.67243.03326-.02722.01921-.12349.01278-.18619-.05028-.488-.0911-.97753-.16024-1.463-.07684-.53961-.18045-1.07537-.27243-1.61284l-.09193.00858-.30748.79183-.11237-.03912q.19768-.70952.39543-1.41913l-.07027.01195c-.21931.48833-.46273.96764-.64984,1.468A8.71441,8.71441,0,0,0,26.09834,31.29241Z" transform="translate(-1.05205 -4.1847)"/><path class="cls-2" d="M39.64067,65.155c.30687.08179.47813.11574.64139.17276,1.47666.51554,2.94711,1.04951,4.43144,1.54168a3.47607,3.47607,0,0,0,.99927.06835.86155.86155,0,0,0,.27742-.09631c.00092.10064-.00411.20185.00517.30175.00529.057.02091.14864.05456.16055a.68216.68216,0,0,0,.27541.02459.202.202,0,0,0,.03028-.15648c-.40987-.67657.19752-.42877.409-.40571a1.74627,1.74627,0,0,1,.63737.29544,1.23957,1.23957,0,0,1,.24228.26141l-.307.16067.00056.15079.46138-.06774c-.03728-.16833-.01934-.39223-.12226-.49458a1.36106,1.36106,0,0,0-1.13847-.51073c-.0816.00958-.17625-.09172-.26486-.14177a.63027.63027,0,0,0,.08822-.112c.0862-.18115.25147-.37863.22473-.54368-.02415-.14921-.23887-.32258-.40663-.38406-.76474-.2803-1.54261-.52455-2.31557-.78237-1.15177-.38414-2.29891-.78351-3.45938-1.1393-.20037-.06143-.45717.06117-.68791.09872a5.19844,5.19844,0,0,0,.2688.61014c.06021.10231.20763.1497.28753.24539.04341.052.0277.15333.03868.23244C39.821,64.50711,40.049,65.0857,39.64067,65.155Z" transform="translate(-1.05205 -4.1847)"/><path class="cls-2" d="M22.12556,43.542c-.38913-.23187-.6991-.60844-1.20751-.61911-.516-.01086-1.00991-.067-1.06225-.75485-.00394-.05177-.20793-.15416-.25528-.126-.2856.16991-.5519.372-.82617.56123-.12821.08843-.25974.172-.38979.25781l-.07071-.12016-.30958.1455c.08843.07955.16392.195.26758.23256.45883.16619.92891.3011,1.38884.46444.42842.15214.97591.00048,1.27481.494.01694.02805.0929.0151.13653.033.6868.282,1.37134.5695,2.06165.84245.05583.02205.21292-.04629.217-.0841.054-.50023.08209-1.00326.13284-1.50393a2.41487,2.41487,0,0,1,.12318-.42794,1.58178,1.58178,0,0,0,.28753.10721c.03964.00722.13359-.05956.13284-.091-.00477-.20058-.03684-.40033-.04555-.601-.03207-.74146.47927-1.26917.78964-1.86387.12672-.24276.03426-.18255-.08966-.26573-.33566-.22544-.52071.16281-.76124.16658-.50211.00783-.43083.26832-.364.585.05027.23843-.013.37193-.30114.422-.55619.09661-.66751.40169-.40637.934a.38541.38541,0,0,1,.03111.3017.31326.31326,0,0,1-.27685.074c-.37324-.09237-.32052.142-.27645.35172.01851.08795.12965.15993.13879.24556a1.79728,1.79728,0,0,1-.04087.397C22.32466,43.64757,22.22222,43.59961,22.12556,43.542Z" transform="translate(-1.05205 -4.1847)"/><path class="cls-2" d="M22.639,46.34846c.27064.11565.52.2807.78964.39933.28332.12466.58109.2162.87063.32721.09311.03571.18019.0873.27.13163.03147-.11355.12156-.25288.08485-.33658a1.53514,1.53514,0,0,1,.2488-1.49155,7.88083,7.88083,0,0,0,.68051-1.108c.3294-.84622.59172-1.719.86866-2.585.10891-.34056.40965-.79292-.34769-.7594-.05352.00236-.11368-.14536-.22605-.29882-.35132,1.01954-.68134,1.96723-1.00365,2.91754-.13145.38764-.23515.79231-.731.71495a2.56332,2.56332,0,0,1,.071.53991c-.0252.28587-.10663.5663-.14137.85186-.036.29575-.138.35715-.44077.26189-.941-.29611-1.89437-.55327-2.84494-.81817a2.39286,2.39286,0,0,0-.40436-.04314,6.16045,6.16045,0,0,0,.9301.54368c.24626.13218.50141.43971.71184.407.452-.07018.22788.16606.20819.31068A1.33215,1.33215,0,0,1,22.639,46.34846Z" transform="translate(-1.05205 -4.1847)"/><path class="cls-2" d="M14.70675,40.87093c-.11845.25256-.26009.71757-.37014.71122a2.03312,2.03312,0,0,1-1.23788-.3462c-.46558-.46076-1.03113-.38082-1.52441-.60266a3.81273,3.81273,0,0,0,.72221.55938c.52119.29681,1.04947.58355,1.58952.84394.28074.13534.61561.16435.88607.3137.6038.33351,1.17864.719,1.77382,1.06885a3.294,3.294,0,0,0,.49835.20758,13.94108,13.94108,0,0,1-.74969-1.44337,3.309,3.309,0,0,1-.11521-1.027c-.00823-.17376.12593-.41508.05-.51449-.36362-.476-.77712-.91378-1.13886-1.32632l-.36612.559c.31243.0529.27965.317.11465.63579C14.78066,40.62318,14.76088,40.75545,14.70675,40.87093Z" transform="translate(-1.05205 -4.1847)"/><path class="cls-2" d="M47.71058,59.66435c.12909-.00446.24115-.49918.36135-.77a2.63737,2.63737,0,0,0,.11648-.26162c.18588-.58468.36751-1.17076.58971-1.88168a3.02486,3.02486,0,0,0-.61032-.65386c-.53248-.32218-.657-.25895-.85781.32756-.28311.827-.55287,1.659-.801,2.49691-.0382.12912.02735.39726.11723.43686A2.63455,2.63455,0,0,0,47.71058,59.66435Z" transform="translate(-1.05205 -4.1847)"/><path class="cls-2" d="M42.93749,56.15732c-.19393.484-.34424.98646-.4906,1.48782-.02783.09522.01032.29138.0708.31711.33684.14339.68991.24863,1.115.39333a1.789,1.789,0,0,0,.213-.34349c.24272-.68615.47485-1.37611.70458-2.06677.31938-.96042.31916-.96773-.64266-1.27442a1.90106,1.90106,0,0,0-.5166-.01812c.0056.2201.02053.44051.01339.66016a.84233.84233,0,0,1-.0736.40677C43.22642,55.88349,43.00575,55.987,42.93749,56.15732Z" transform="translate(-1.05205 -4.1847)"/><path class="cls-2" d="M8.90414,41.52781c-.30581-.14444-.685-.135-.90738-.45486-.01234-.01767-.06052-.01045-.177-.0266a3.12652,3.12652,0,0,0-.2583.27554c-.1542.20233-.289.41936-.44273.622-.16974.22377-.08117.33482.151.40549.55921.17013,1.11672.346,1.67672.51358a.77656.77656,0,0,0,.217.00157c-.01155-.0827.00722-.19533-.03986-.243a.55147.55147,0,0,1-.12935-.72326A.39115.39115,0,0,0,8.90414,41.52781Z" transform="translate(-1.05205 -4.1847)"/><path class="cls-2" d="M52.16959,47.74488c-.34774.97026-.66388,1.95186-.98948,2.93009l.14948.12366c.18386-.16505.4356-.2961.53869-.50167.29046-.579.524-1.187.769-1.788a.61948.61948,0,0,0,.02831-.32669c-.03308-.18483-.09775-.36405-.17542-.63815C52.42544,47.58219,52.21,47.63216,52.16959,47.74488Z" transform="translate(-1.05205 -4.1847)"/><path class="cls-2" d="M28.38385,52.59542c.06542-.19025.10629-.38887.1556-.58464-.11972-.02012-.24171-.03163-.35859-.06239-.16925-.04459-.33553-.101-.50185-.156-.51423-.16982-1.02789-.34131-1.63716-.54381-.07763.071-.23524.15652-.28565.28433-.028.07115.09854.27541.19621.3126.74194.28258,1.49325.54092,2.24451.79852C28.25022,52.66237,28.37177,52.6306,28.38385,52.59542Z" transform="translate(-1.05205 -4.1847)"/><path class="cls-2" d="M25.28074,56.85166a.79941.79941,0,0,0-.19424-.16c-.34651-.15765-.284.16991-.34471.319-.25143.61776-.48382,1.24327-.72987,1.8633-.13363.33676.15761.30188.32061.39229.24578.13621.2944-.025.3413-.20557.09194-.35422.182-.709.279-1.06185C25.05246,57.636,25.15932,57.27509,25.28074,56.85166Z" transform="translate(-1.05205 -4.1847)"/><path class="cls-2" d="M39.39572,41.31126c.10733-.34372.19612-.69325.30936-1.10167-.05772-.07316-.1223-.23432-.22881-.2699-.13026-.0434-.391-.03159-.43017.04306-.23414.44562-.42125.916-.6217,1.37913a.10988.10988,0,0,0,.00206.0904C38.50824,41.56938,39.35113,41.45421,39.39572,41.31126Z" transform="translate(-1.05205 -4.1847)"/><path class="cls-2" d="M9.83149,43.45968c-.19923-.03851-.49358-.13132-.5944-.03654a.98127.98127,0,0,0-.21025,1.28422c-.14663.07386-.38506.11688-.4223.22758a6.294,6.294,0,0,0-.18076.978l.17717.03955a.06784.06784,0,0,1,.06573.03921c.0757.01085.15139.02175.22618.03312.37263-.30091.70155-.62436.57842-1.17119.17507-.40007.35635-.79765.51629-1.20363C10.00327,43.61011,9.89673,43.47232,9.83149,43.45968Z" transform="translate(-1.05205 -4.1847)"/><path class="cls-2" d="M42.83742,60.26233l-.05662.195c.91145.29116,1.822.58512,2.73642.86665.05737.01768.1448-.06231.21822-.09683a.75718.75718,0,0,0-.17057-.12143c-.60756-.21405-1.21425-.43139-1.82759-.62795C43.44441,60.38389,43.13781,60.33278,42.83742,60.26233Z" transform="translate(-1.05205 -4.1847)"/><path class="cls-2" d="M30.73237,30.24754c.11587-.43455.25047-.86565.331-1.30663.01523-.08353-.184-.20623-.28424-.31089-.05811.08471-.11285.17192-.17494.25357-.18767.24674.11692.63347-.23887.85387a3.14523,3.14523,0,0,0,.21345.51485Z" transform="translate(-1.05205 -4.1847)"/><path class="cls-2" d="M29.875,32.012a4.79868,4.79868,0,0,0,.24351-.45512c.04-.09648-.00582-.25475.05539-.312.46912-.4384.47437-.4328.02923-1.03358-.194.567-.37412,1.071-.529,1.58273C29.65958,31.842,29.80424,31.93813,29.875,32.012Z" transform="translate(-1.05205 -4.1847)"/><path class="cls-2" d="M41.49609,57.63648l.16164.0515q.55613-1.74189,1.1123-3.4837l-.16951-.05391Q42.04826,55.89345,41.49609,57.63648Z" transform="translate(-1.05205 -4.1847)"/><path class="cls-2" d="M36.7738,49.58289q1.636.52383,3.27215,1.04771l.04721-.16754-3.25928-1.06671Z" transform="translate(-1.05205 -4.1847)"/><path class="cls-2" d="M22.874,53.16417l-.1868.00394a3.68956,3.68956,0,0,0-.29146.709c-.01531.07417.20067.27261.32358.28482.40353.04021.41464-.34564.48207-.58937C23.22863,53.4741,22.99112,53.30249,22.874,53.16417Z" transform="translate(-1.05205 -4.1847)"/><path class="cls-2" d="M25.94418,52.87245c-.12107.04458-.31456.05732-.35053.13927a9.417,9.417,0,0,0-.35387,1.04111c-.00109.00355.11684.0435.18707.06883l-.00057.003.00131-.00271.00914.00323.00512-.03251.13058-.26779-.08831.00009.00167-.01068-.00692.01068.03676-.13193.063.12112.24535-.264-.00162-.01085a1.15268,1.15268,0,0,0,.21655-.33806C26.06259,53.10523,25.97967,52.983,25.94418,52.87245Zm-.17769.36808-.09181-.01238q.028-.07233.05636-.14445Zm.01369.01216.0883.00674q-.02421.13087-.04878.26136Zm.12121-.03557a.08612.08612,0,0,1-.01343.015l.01715-.04913A.08763.08763,0,0,1,25.90139,53.21712Z" transform="translate(-1.05205 -4.1847)"/><path class="cls-2" d="M23.16846,49.42335q.58875.18522,1.17759.37049l.03811-.12506q-.57883-.18378-1.15763-.36751Z" transform="translate(-1.05205 -4.1847)"/><path class="cls-2" d="M23.21471,50.575l.6708.21095.03107-.09018-.67465-.21515Z" transform="translate(-1.05205 -4.1847)"/><path class="cls-2" d="M28.46922,48.51986l-.00919.009.00005.00682.00914,0Z" transform="translate(-1.05205 -4.1847)"/><polygon class="cls-2" points="27.606 44.157 27.609 44.148 27.607 44.15 27.601 44.161 27.606 44.157"/><path class="cls-2" d="M24.70035,48.39743l-.89417-.16842.14111.10978-.00429-.00144c-.06839-.0375-.13682-.075-.20438-.11255-.06538.07457-.13162.14913-.19787.22373l.01238.0014q.05073.13593.10213.27138l.37832.00989.01217.09054-.01086-.00552.00014.00009-.00018-.00009.0112.00784-.39018-.10113-.00061-.00162-.00639-.00017.0098.00928,0-.00005.00009.00005-.17906.07521q.495.095.99.19l.05855.01978-.00486-.00945.10865-.19485-.00682-.00132c.0049-.06712.0301-.16531.00271-.18325a3.32494,3.32494,0,0,0-.39661-.19861l.44233.09486Zm-.6417.22723c.03956.01356.079.02743.11832.0413l-.13271.05129Z" transform="translate(-1.05205 -4.1847)"/><path class="cls-2" d="M28.27271,48.8178l-.00311.00914.00963-.00993.0291.18142.15336-.083-.00161-.37981-.0922.0004.00389-.0116-.00783.0116.00035-.26976-.2555.57151Z" transform="translate(-1.05205 -4.1847)"/><path class="cls-2" d="M28.37449,48.23854l-.01015.00005,0,.0277.00849-.019Z" transform="translate(-1.05205 -4.1847)"/><path class="cls-2" d="M28.46169,48.24962l.00788-.0116-.00035.28184.19008-.18553q.05631-.1064.11281-.21218l-.03755-.392-.17944.22692-.0151-.1339c-.03151.01055-.08668.01541-.0908.03252-.03041.12628-.0511.25492-.07473.38282l.0911-.00052Z" transform="translate(-1.05205 -4.1847)"/><path class="cls-2" d="M27.59929,47.9066l.18395-.36252-.1181-.03628Z" transform="translate(-1.05205 -4.1847)"/><path class="cls-2" d="M27.593,47.94454l.00626-.03794-.01514.02985Z" transform="translate(-1.05205 -4.1847)"/><path class="cls-2" d="M28.46169,48.91546l0,.00792.00871-.01264c-.0235.20478.05583.20377.18631.10025l-.00289.00848.009-.0126.09915.13932q.16908-.49686.33824-.99363l-.21257.00683-.13739.57159q.03479-.22487.07-.45021a.03783.03783,0,0,1-.04782-.03045l-.11452.09145-.19292.5719Z" transform="translate(-1.05205 -4.1847)"/><path class="cls-2" d="M27.52867,48.29062l.05032-.32114q-.08191.14192-.1644.28324Z" transform="translate(-1.05205 -4.1847)"/><path class="cls-2" d="M27.59329,47.9448l-.00914-.00835-.00516.033Z" transform="translate(-1.05205 -4.1847)"/><path class="cls-2" d="M26.616,53.20355l-.0782.23909.20347-.15157Z" transform="translate(-1.05205 -4.1847)"/><path class="cls-2" d="M24.81434,53.334l-.00937.00972.00932-.00972-.00932.00967.0529-.398-.15109.49992-.00717.00749q-.02547.28938-.05081.57929l.06634.01532.19835-.70948-.10795.00547Z" transform="translate(-1.05205 -4.1847)"/><path class="cls-2" d="M26.73614,53.4769l-.09915.33321.10147.06043Z" transform="translate(-1.05205 -4.1847)"/><polygon class="cls-2" points="25.585 49.625 25.576 49.62 25.584 49.628 25.585 49.625"/><path class="cls-2" d="M25.57243,53.82486h.01185l-.0056-.01072-.00219.00236Z" transform="translate(-1.05205 -4.1847)"/><path class="cls-2" d="M13.70953,35.16026l.33023.15227a.16711.16711,0,0,1,.05273-.05238l-.07128-.10672-.29895-.03938Z" transform="translate(-1.05205 -4.1847)"/><polygon class="cls-2" points="12.965 30.962 12.969 30.969 12.973 30.969 12.965 30.962"/><path class="cls-2" d="M14.01732,35.14726l.00726.00661.02214-.00565Z" transform="translate(-1.05205 -4.1847)"/><path class="cls-2" d="M14.08811,35.13768l-.04139.01054.01033.00035A.1494.1494,0,0,0,14.08811,35.13768Z" transform="translate(-1.05205 -4.1847)"/><path class="cls-2" d="M26.63637,53.813l-.00857-.00836-.01466.07614Z" transform="translate(-1.05205 -4.1847)"/></g></g></g></svg>